<?xml version="1.0" standalone="no"?>
<!DOCTYPE svg PUBLIC "-//W3C//DTD SVG 20010904//EN"
 "http://www.w3.org/TR/2001/REC-SVG-20010904/DTD/svg10.dtd">
<svg version="1.0" xmlns="http://www.w3.org/2000/svg"
 width="260.000000pt" height="260.000000pt" viewBox="0 0 260.000000 260.000000"
 preserveAspectRatio="xMidYMid meet">
<metadata>
Created by potrace 1.11, written by Peter Selinger 2001-2013
</metadata>
<g transform="translate(0.000000,260.000000) scale(0.100000,-0.100000)"
fill="#000000" stroke="none">
<path d="M332 2370 c-18 -5 -18 -37 -18 -1078 l0 -1073 490 2 c517 1 587 5
740 49 335 94 596 348 695 676 50 165 65 402 35 574 -61 346 -268 615 -579
752 -71 31 -211 73 -275 82 -25 3 -58 9 -75 12 -36 8 -986 11 -1013 4z m948
-535 c176 -37 308 -148 371 -314 45 -118 45 -308 0 -434 -55 -158 -170 -260
-342 -307 -63 -17 -114 -22 -235 -24 -85 -1 -155 0 -155 3 -1 3 -3 250 -4 549
l-1 544 165 -5 c91 -2 182 -8 201 -12z"/>
</g>
</svg>
